<svg xmlns="http://www.w3.org/2000/svg" viewBox="0 0 239.15 34"><defs><mask id="mask" x="9.5" y="2.96" width="26.74" height="21.75" maskUnits="userSpaceOnUse"><g id="b"><path id="a" class="cls-1" d="M9.5 3h26.73v21.71H9.5z"/></g></mask><mask id="mask-2" x="45.73" y="4.11" width="24.53" height="26.81" maskUnits="userSpaceOnUse"><g id="d"><path id="c" class="cls-1" d="M45.73 4.11h24.53v26.8H45.73z"/></g></mask><mask id="mask-3" x="67.7" y="10.37" width="21.6" height="21.55" maskUnits="userSpaceOnUse"><g id="f"><path id="e" class="cls-1" d="M67.7 10.37h21.6v21.55H67.7z"/></g></mask><style>.cls-1{fill:#fff;fill-rule:evenodd}</style></defs><g id="Layer_2" data-name="Layer 2"><g id="Layer_1-2" data-name="Layer 1"><path d="M8.75 4c-5.49 7.51 15.6 12.77 23.06 11.5 1.31-.22 5.29-.9 2.57-6.34C34 8.4 33.5 7.66 33 6.93s-1.18-1.49-1.81-2.2l-.55-.55C29.22 2.85 26.19.09 18.43 0c-4.6.1-7.86 1.43-9.68 4m7.1 23.69c1 3.67 4.46 6.47 6.22 6.36a16.5 16.5 0 0010.3-7.45c2.82-4.81 1.86-9.45-2-9.55C29 17.1 14 20.65 15.85 27.64" fill="#5493f7" fill-rule="evenodd"/><path class="cls-1" d="M12.59 4c-2.31 3.23-10 5.51-11.27 5.16l.16-.29A16 16 0 013 6.56a17.38 17.38 0 011.84-2 18.36 18.36 0 013.59-2.62A5.74 5.74 0 0111 1.31c3.43.06 1.64 2.62 1.62 2.65m-.92 24.47a24.05 24.05 0 01-.23 5.57 3.39 3.39 0 01-1.82-.6 18.51 18.51 0 01-4.05-2.88 17.91 17.91 0 01-1.91-2.08 17.53 17.53 0 01-1.56-2.33A18.3 18.3 0 011 23.56a16.87 16.87 0 01-1-5.63 16.66 16.66 0 011.18-6.16c1.37 1.71 3 3.25 4.32 5s3.07 4.31 3.43 4.89a16.76 16.76 0 012.77 6.79"/><g mask="url(#mask)"><path class="cls-1" d="M36.23 17.52A17.93 17.93 0 0135 24.17c-2.16 2.29-16.7-3.35-16.84-3.41-2-.86-8-3.48-8.58-7.6C8.75 7.24 20.9 3.12 26.25 3a6.55 6.55 0 013.75.9 18 18 0 016.26 13.62"/></g><path class="cls-1" d="M26.49 33.67c-1.58.74-3.33.2-2.88-1.34.87-3 8.49-6 10.17-6.18l.2.05a.49.49 0 010 .24 18.39 18.39 0 01-7.5 7.23M105.7 9.51h-1.11a8.85 8.85 0 00-1.59.15 8.12 8.12 0 00-4.46 2.72V10h-6.39v21h6.39v-8.77a21 21 0 01.17-2.85 5.6 5.6 0 01.75-2.24 3.81 3.81 0 011.64-1.45 6.76 6.76 0 012.89-.52 8.58 8.58 0 011.38.11 8.72 8.72 0 011.34.33V9.68a5 5 0 00-1-.17m17.29 0h-1.11a8.85 8.85 0 00-1.59.15 8.15 8.15 0 00-4.46 2.72V10h-6.38v21h6.38v-8.77a20.93 20.93 0 01.18-2.85 5.59 5.59 0 01.74-2.24 3.87 3.87 0 011.64-1.45 6.76 6.76 0 012.89-.52 8.8 8.8 0 011.39.11 9 9 0 011.34.33V9.68a5.17 5.17 0 00-1-.17"/><g mask="url(#mask-2)"><path class="cls-1" d="M54.58 9.85h-8.85V4.11h24.53v5.74h-8.85v21.06h-6.83z"/></g><g mask="url(#mask-3)"><path class="cls-1" d="M82.8 18.81a3.65 3.65 0 00-1.08-2.75 3.93 3.93 0 00-2.9-1.14 4.86 4.86 0 00-3.32 1.2 3.75 3.75 0 00-.91 1.22 3.9 3.9 0 00-.38 1.46h8.59zm5.5 9.05a10.54 10.54 0 01-3.94 3 12.13 12.13 0 01-5 1.05 13.74 13.74 0 01-4.57-.76A11 11 0 0171.1 29a10.25 10.25 0 01-2.49-3.41 10.6 10.6 0 01-.91-4.43 10.29 10.29 0 013.4-7.84 11.1 11.1 0 013.74-2.18 13.48 13.48 0 014.57-.75 10.65 10.65 0 014.09.75 8.76 8.76 0 013.13 2.18 9.91 9.91 0 012 3.41 13.68 13.68 0 01.69 4.43v2H74.21A5.07 5.07 0 0075.9 26a5.43 5.43 0 005.92.38 7.51 7.51 0 001.93-1.8z"/></g><path class="cls-1" d="M139.09 24.16v-.35a1.05 1.05 0 00-.73-1 10.31 10.31 0 00-3.22-.5c-2.64 0-4.27 1-4.27 2.89v.08c0 1.6 1.39 2.53 3.37 2.53 2.9 0 4.84-1.52 4.84-3.67m-14.16 1.37v-.09c0-4.57 3.61-6.67 8.77-6.67a16.07 16.07 0 015.33.86v-.35c0-2.45-1.59-3.83-4.67-3.83a16.61 16.61 0 00-6 1.13l-1.55-4.53a20 20 0 018.45-1.68c3.37 0 5.8.86 7.35 2.34s2.35 3.87 2.35 6.68v12.16h-6v-2.27a8.53 8.53 0 01-6.59 2.66c-4.1 0-7.47-2.25-7.47-6.39"/><path d="M178.55 23.66a11.52 11.52 0 01-2.74 3.93 13.34 13.34 0 01-4.23 2.61 14.94 14.94 0 01-5.4.95h-8.71V6.48h8.71a15.16 15.16 0 015.4.93 13.12 13.12 0 014.23 2.59 11.53 11.53 0 012.74 3.91 12.17 12.17 0 011 4.87 12.25 12.25 0 01-1 4.88zM175.84 15a9.13 9.13 0 00-2.08-3.12 9.49 9.49 0 00-3.28-2.08 11.59 11.59 0 00-4.3-.76h-5.88v19.54h5.88a12 12 0 004.3-.74 9.33 9.33 0 003.28-2.07 9.16 9.16 0 002.08-3.08 9.84 9.84 0 00.74-3.84 10.06 10.06 0 00-.74-3.85zm25.89 10.7a9.5 9.5 0 01-2 3.05 9.35 9.35 0 01-3.09 2.06 9.72 9.72 0 01-3.87.76 9.64 9.64 0 01-6.88-2.8 9.09 9.09 0 01-2-3 9.74 9.74 0 010-7.35 9.26 9.26 0 012-3.05 9.43 9.43 0 013.06-2.06 10.26 10.26 0 017.75 0 9.54 9.54 0 013.06 2 9.18 9.18 0 012 3 9.59 9.59 0 010 7.34zm-2.61-6.4a7 7 0 00-1.46-2.3 6.82 6.82 0 00-2.18-1.53 6.54 6.54 0 00-2.73-.56 6.93 6.93 0 00-2.76.54 6.2 6.2 0 00-2.13 1.55 7.18 7.18 0 00-1.38 2.25A7.44 7.44 0 00186 22a7.55 7.55 0 00.52 2.78 6.89 6.89 0 001.41 2.22 6.82 6.82 0 002.17 1.51 6.46 6.46 0 002.72.56 6.86 6.86 0 002.76-.54 6.47 6.47 0 002.16-1.49 6.94 6.94 0 001.39-2.24 7.36 7.36 0 00.51-2.76 7.5 7.5 0 00-.52-2.74zm20.33 11.27a8.84 8.84 0 01-4.4 1 9.28 9.28 0 01-3.78-.76 9.42 9.42 0 01-5.72-8.72 9.66 9.66 0 012.71-6.73 9.4 9.4 0 016.79-2.82 10.5 10.5 0 012.41.25 8.79 8.79 0 013.62 1.72 15.55 15.55 0 011.4 1.27l-1.83 1.91a12.72 12.72 0 00-2.42-1.94 6 6 0 00-3.21-.81 6.4 6.4 0 00-2.62.54 6.52 6.52 0 00-2.11 1.52 7.05 7.05 0 00-1.4 2.25 7.44 7.44 0 00-.51 2.76 7.55 7.55 0 00.52 2.78 7.2 7.2 0 001.44 2.27 6.64 6.64 0 002.15 1.51 6.73 6.73 0 002.71.54 6.33 6.33 0 003.17-.77 10.58 10.58 0 002.49-1.94l1.76 1.6a12.52 12.52 0 01-3.17 2.57zm19.18-2.22a5.15 5.15 0 01-1.4 1.71 6.21 6.21 0 01-2.08 1.07 8.65 8.65 0 01-2.6.37 12.11 12.11 0 01-4.05-.72 12.49 12.49 0 01-3.62-2l1.4-1.94a12 12 0 003.14 1.73 9.41 9.41 0 003.28.6 4.6 4.6 0 002.76-.78 2.47 2.47 0 001.07-2.11v-.07a1.85 1.85 0 00-.37-1.16 3.4 3.4 0 00-1-.87 9 9 0 00-1.49-.65c-.57-.19-1.15-.36-1.74-.53s-1.44-.44-2.17-.68a8.76 8.76 0 01-2-.94 4.62 4.62 0 01-1.43-1.38 3.76 3.76 0 01-.55-2.11v-.07a4.72 4.72 0 011.77-3.82 6 6 0 012-1.06 8.23 8.23 0 012.53-.37 11.58 11.58 0 013.48.55 13.09 13.09 0 013.19 1.46l-1.26 2a12.2 12.2 0 00-2.71-1.28 8.59 8.59 0 00-2.78-.4 4.1 4.1 0 00-2.62.76 2.28 2.28 0 00-1 1.88v.08a1.66 1.66 0 00.39 1.1 3.47 3.47 0 001.06.83 9.15 9.15 0 001.53.64c.57.19 1.17.37 1.79.56s1.43.45 2.13.71a8.26 8.26 0 011.92 1 4.64 4.64 0 011.38 1.45 3.87 3.87 0 01.52 2.08V26a4.92 4.92 0 01-.47 2.35z" fill="#fff"/></g></g></svg>