<svg xmlns="http://www.w3.org/2000/svg" width="360.77" height="101.25" viewBox="0 0 360.77 101.25"><defs><style>.cls-1{fill:#fff}</style></defs><g id="Layer_2" data-name="Layer 2"><g id="Layer_6" data-name="Layer 6"><path class="cls-1" d="M261.55 31.14c-.39 0-1.18-.11-2.85-.11a20 20 0 00-4.06.4c-5.23 1-8.58 3.86-11.46 6.87v-5.95h-16.41v53.14h16.41v-22.2a55.31 55.31 0 01.43-7.22 13.86 13.86 0 011.92-5.63 9.75 9.75 0 014.21-3.66 17.33 17.33 0 017.43-1.31 22.74 22.74 0 013.56.27 25.52 25.52 0 013.44.82v-15a14.6 14.6 0 00-2.62-.42zm43.87 0c-.38 0-1.17-.11-2.84-.11a20.06 20.06 0 00-4.07.4c-5.23 1-8.57 3.86-11.46 6.87v-5.95h-16.4v53.14h16.4v-22.2a53.53 53.53 0 01.44-7.22 14 14 0 011.91-5.63 9.81 9.81 0 014.21-3.66 17.33 17.33 0 017.39-1.31 22.65 22.65 0 013.56.27 24.82 24.82 0 013.44.82v-15a14.6 14.6 0 00-2.58-.42zm-172.91-.98h-22.09V15.07h61.24v15.09h-22.09v55.33h-17.06zm85.23 46.14a26 26 0 01-10 7.76 29.68 29.68 0 01-12.46 2.74 33.54 33.54 0 01-11.54-2 27.72 27.72 0 01-9.4-5.63 26.47 26.47 0 01-6.29-8.8 27.89 27.89 0 01-2.3-11.48 27.82 27.82 0 012.3-11.48 26.51 26.51 0 016.29-8.81 27.72 27.72 0 019.4-5.63 33.54 33.54 0 0111.54-2 26.27 26.27 0 0110.33 2 21.48 21.48 0 017.87 5.63 25.8 25.8 0 015 8.81 35.61 35.61 0 011.75 11.48v5.14h-38a12.89 12.89 0 004.26 7.48 12.06 12.06 0 008.09 2.79 12.36 12.36 0 006.84-1.8 18.31 18.31 0 004.86-4.65zm-13.88-23.4a9.5 9.5 0 00-2.74-7.11 9.74 9.74 0 00-7.32-2.95 12 12 0 00-8.37 3.16 10 10 0 00-2.3 3.17 10.49 10.49 0 00-.92 3.77z"/><circle class="cls-1" cx="50.62" cy="50.62" r="50.62"/><path class="cls-1" d="M309.77 70.25v-.2c0-11.81 9.2-17.26 22.34-17.26A40.31 40.31 0 01345.66 55v-.9c0-6.35-4-9.88-11.89-9.88a41.83 41.83 0 00-15.32 2.92l-3.93-11.7A49.92 49.92 0 01336 31.1c8.59 0 14.79 2.22 18.72 6 4.14 4 6 10 6 17.26v31.43h-15.16v-5.85c-3.83 4.13-9.11 6.86-16.76 6.86-10.45 0-19.03-5.8-19.03-16.55zm36.1-3.53v-.9a2.71 2.71 0 00-1.87-2.55 25.85 25.85 0 00-8.17-1.27c-6.72 0-10.83 2.6-10.83 7.44v.2c0 4.14 3.52 6.56 8.59 6.56 7.31 0 12.28-3.93 12.28-9.48z"/><g id="Symbol"><path d="M44.08 76.35c2.57 9.47 11.76 16.71 16.4 16.41.16 0 17.6-3.26 27.15-19.22 7.43-12.41 4.9-24.4-5.2-24.66-3.64.26-43.23 9.41-38.35 27.47m37.41-60.88a44.36 44.36 0 00-46.75-6.76 25.29 25.29 0 00-2.81 1.38c-.62.33-1.25.66-1.85 1h.15a20.18 20.18 0 00-4.68 4.43C12.81 32.4 55.49 44.63 78.3 44.67c10.49 7.53 13.44-21.21 3.19-29.2z" fill="#0e3ca5"/><path d="M37.31 15.82c-5.86 8.81-25.39 15-28.6 14.05.13-.27.27-.53.4-.8a47.38 47.38 0 013.8-6.12A47 47 0 0123 12.79a44.58 44.58 0 013.73-2.47A13.65 13.65 0 0133.2 8.6c8.7.16 4.16 7.14 4.11 7.22M32.5 78.08c.42 2.77 0 13.7-.57 14.63-.49 0-1.51.09-4.45-1.56a44.25 44.25 0 01-4.48-2.9 46.77 46.77 0 01-5.45-4.67 47.69 47.69 0 01-4.68-5.45A46.82 46.82 0 019.09 72a46.08 46.08 0 01-2.83-6.7 45.61 45.61 0 01-1.77-7.2 46.71 46.71 0 010-15.17 45.49 45.49 0 011.77-7.19c.15-.47.32-.94.49-1.4 3.37 4.48 7.27 8.54 10.59 13.07 3.15 4.31 7.5 11.33 8.38 12.83 5.49 9.33 6.36 15.08 6.78 17.84m64.87-27.56a46.65 46.65 0 01-3.25 17.17c-5.51 5.92-42.63-8.65-43-8.81-5.07-2.22-20.53-9-21.92-19.63-2-15.3 29-26 42.67-26.37 1.64 0 6.62.08 9.52 2.44a46.61 46.61 0 0116 35.2M72.24 92c-4 1.89-8.5.52-7.34-3.42C67.12 81 86.53 73.23 90.81 72.81c.53-.06.76.3.52.72A47.22 47.22 0 0172.24 92" fill="#5493f7"/></g></g></g></svg>